<svg width="800" height="500" viewBox="0 0 800 500" fill="none" xmlns="http://www.w3.org/2000/svg">
  <!-- Background -->
  <rect width="800" height="500" fill="#F9FAFB"/>
  
  <!-- Resume outline -->
  <rect x="150" y="50" width="500" height="400" fill="white" stroke="#E5E7EB" stroke-width="2"/>
  
  <!-- Header section -->
  <rect x="150" y="50" width="500" height="80" fill="#F3F4F6"/>
  
  <!-- Name -->
  <rect x="180" y="70" width="200" height="16" rx="2" fill="#4B5563"/>
  <rect x="180" y="95" width="150" height="12" rx="2" fill="#9CA3AF"/>
  
  <!-- Contact info -->
  <rect x="450" y="70" width="170" height="10" rx="2" fill="#9CA3AF"/>
  <rect x="450" y="85" width="170" height="10" rx="2" fill="#9CA3AF"/>
  <rect x="450" y="100" width="170" height="10" rx="2" fill="#9CA3AF"/>
  
  <!-- Experience section -->
  <rect x="180" y="150" width="120" height="14" rx="2" fill="#4B5563"/>
  <line x1="180" y1="172" x2="620" y2="172" stroke="#E5E7EB" stroke-width="1"/>
  
  <!-- Job 1 -->
  <rect x="180" y="185" width="150" height="12" rx="2" fill="#6B7280"/>
  <rect x="180" y="205" width="100" height="10" rx="2" fill="#9CA3AF"/>
  <rect x="550" y="185" width="70" height="10" rx="2" fill="#9CA3AF"/>
  <rect x="180" y="225" width="440" height="8" rx="2" fill="#D1D5DB"/>
  <rect x="180" y="240" width="440" height="8" rx="2" fill="#D1D5DB"/>
  <rect x="180" y="255" width="300" height="8" rx="2" fill="#D1D5DB"/>
  
  <!-- Job 2 -->
  <rect x="180" y="285" width="150" height="12" rx="2" fill="#6B7280"/>
  <rect x="180" y="305" width="100" height="10" rx="2" fill="#9CA3AF"/>
  <rect x="550" y="285" width="70" height="10" rx="2" fill="#9CA3AF"/>
  <rect x="180" y="325" width="440" height="8" rx="2" fill="#D1D5DB"/>
  <rect x="180" y="340" width="440" height="8" rx="2" fill="#D1D5DB"/>
  <rect x="180" y="355" width="300" height="8" rx="2" fill="#D1D5DB"/>
  
  <!-- Education section -->
  <rect x="180" y="385" width="120" height="14" rx="2" fill="#4B5563"/>
  <line x1="180" y1="407" x2="620" y2="407" stroke="#E5E7EB" stroke-width="1"/>
  <rect x="180" y="420" width="150" height="12" rx="2" fill="#6B7280"/>
  <rect x="550" y="420" width="70" height="10" rx="2" fill="#9CA3AF"/>
  
  <!-- Professional Clean label -->
  <text x="400" y="480" font-family="Arial" font-size="16" font-weight="bold" fill="#4B5563" text-anchor="middle">Professional Clean</text>
</svg> 