<svg width="800" height="500" viewBox="0 0 800 500" fill="none" xmlns="http://www.w3.org/2000/svg">
  <!-- Background -->
  <rect width="800" height="500" fill="#FDF2F8"/>
  
  <!-- Decorative elements -->
  <rect x="0" y="400" width="800" height="100" fill="#DB2777" opacity="0.7"/>
  <circle cx="700" cy="100" r="60" fill="#F472B6" opacity="0.5"/>
  <circle cx="150" cy="120" r="40" fill="#EC4899" opacity="0.6"/>
  
  <!-- Two people in negotiation -->
  <!-- Person 1 -->
  <path d="M300 180 C325 180 345 160 345 140 C345 120 325 100 300 100 C275 100 255 120 255 140 C255 160 275 180 300 180 Z" fill="#BE185D"/>
  <path d="M250 320 L250 230 C250 210 270 190 300 190 C330 190 350 210 350 230 L350 320 L320 320 L320 260 L300 290 L280 260 L280 320 Z" fill="#BE185D"/>
  
  <!-- Person 2 -->
  <path d="M500 180 C525 180 545 160 545 140 C545 120 525 100 500 100 C475 100 455 120 455 140 C455 160 475 180 500 180 Z" fill="#9D174D"/>
  <path d="M450 320 L450 230 C450 210 470 190 500 190 C530 190 550 210 550 230 L550 320 L520 320 L520 260 L500 290 L480 260 L480 320 Z" fill="#9D174D"/>
  
  <!-- Table -->
  <rect x="250" y="320" width="300" height="10" rx="2" fill="#831843"/>
  <rect x="275" y="330" width="10" height="40" fill="#831843"/>
  <rect x="515" y="330" width="10" height="40" fill="#831843"/>
  
  <!-- Money/Contract elements -->
  <rect x="350" y="280" width="100" height="30" rx="2" fill="#FBCFE8"/>
  <rect x="360" y="290" width="80" height="5" rx="2" fill="#DB2777"/>
  <rect x="370" y="300" width="60" height="5" rx="2" fill="#DB2777"/>
  
  <!-- Dollar sign -->
  <text x="400" y="260" font-family="Arial" font-size="32" font-weight="bold" fill="#DB2777" text-anchor="middle">$</text>
  
  <!-- Title -->
  <text x="400" y="450" font-family="Arial" font-size="24" font-weight="bold" fill="white" text-anchor="middle">How to Negotiate Your Salary in Tech</text>
</svg> 