<svg width="800" height="500" viewBox="0 0 800 500" fill="none" xmlns="http://www.w3.org/2000/svg">
  <!-- Background -->
  <rect width="800" height="500" fill="#FEF2F2"/>
  
  <!-- Decorative elements -->
  <rect x="0" y="400" width="800" height="100" fill="#DC2626" opacity="0.7"/>
  <circle cx="700" cy="100" r="60" fill="#FECACA" opacity="0.5"/>
  <circle cx="150" cy="150" r="50" fill="#FCA5A5" opacity="0.6"/>
  
  <!-- Interview scene -->
  <!-- Person 1 (Interviewer) -->
  <path d="M300 180 C325 180 345 160 345 140 C345 120 325 100 300 100 C275 100 255 120 255 140 C255 160 275 180 300 180 Z" fill="#B91C1C"/>
  <path d="M250 350 L250 230 C250 210 270 190 300 190 C330 190 350 210 350 230 L350 350 L330 350 L330 260 L300 290 L270 260 L270 350 Z" fill="#B91C1C"/>
  
  <!-- Person 2 (Interviewee) -->
  <path d="M500 180 C525 180 545 160 545 140 C545 120 525 100 500 100 C475 100 455 120 455 140 C455 160 475 180 500 180 Z" fill="#991B1B"/>
  <path d="M450 350 L450 230 C450 210 470 190 500 190 C530 190 550 210 550 230 L550 350 L530 350 L530 260 L500 290 L470 260 L470 350 Z" fill="#991B1B"/>
  
  <!-- Table -->
  <rect x="200" y="300" width="400" height="15" rx="2" fill="#7F1D1D"/>
  
  <!-- Laptop -->
  <rect x="220" y="240" width="120" height="10" rx="2" fill="#7F1D1D"/>
  <rect x="230" y="200" width="100" height="40" rx="2" fill="#7F1D1D"/>
  <rect x="235" y="205" width="90" height="30" rx="1" fill="#FEE2E2"/>
  
  <!-- Whiteboard with code -->
  <rect x="400" y="150" width="150" height="100" rx="2" fill="white" stroke="#7F1D1D" stroke-width="2"/>
  <line x1="420" y1="170" x2="530" y2="170" stroke="#B91C1C" stroke-width="2"/>
  <line x1="420" y1="190" x2="500" y2="190" stroke="#B91C1C" stroke-width="2"/>
  <line x1="420" y1="210" x2="510" y2="210" stroke="#B91C1C" stroke-width="2"/>
  <line x1="420" y1="230" x2="480" y2="230" stroke="#B91C1C" stroke-width="2"/>
  
  <!-- Title -->
  <text x="400" y="450" font-family="Arial" font-size="24" font-weight="bold" fill="white" text-anchor="middle">Mastering Technical Interviews: A Guide</text>
</svg> 